<mxfile host="app.diagrams.net" agent="Mozilla/5.0 (Windows NT 10.0; Win64; x64) AppleWebKit/537.36 (KHTML, like Gecko) Chrome/137.0.0.0 Safari/537.36 Edg/137.0.0.0" version="26.2.2">
  <diagram name="PÃ¡gina-1" id="dZ1INaviMljP2FmSyb9t">
    <mxGraphModel dx="1420" dy="786" grid="1" gridSize="10" guides="1" tooltips="1" connect="1" arrows="1" fold="1" page="1" pageScale="1" pageWidth="827" pageHeight="1169" math="0" shadow="0">
      <root>
        <mxCell id="0" />
        <mxCell id="1" parent="0" />
        <mxCell id="9CD8Q6830F6TMeSSEY_z-70" value="" style="rounded=1;whiteSpace=wrap;html=1;fillColor=#f8cecc;strokeColor=#b85450;" vertex="1" parent="1">
          <mxGeometry x="30" y="93" width="285" height="170" as="geometry" />
        </mxCell>
        <mxCell id="9CD8Q6830F6TMeSSEY_z-69" value="" style="shape=mxgraph.signs.safety.no;html=1;pointerEvents=1;fillColor=#FF3333;strokeColor=none;verticalLabelPosition=bottom;verticalAlign=top;align=center;opacity=90;" vertex="1" parent="1">
          <mxGeometry x="40" y="100" width="35.56" height="35.56" as="geometry" />
        </mxCell>
        <mxCell id="9CD8Q6830F6TMeSSEY_z-67" value="" style="rounded=1;whiteSpace=wrap;html=1;fillColor=#d5e8d4;strokeColor=#82b366;" vertex="1" parent="1">
          <mxGeometry x="10" y="575" width="285" height="170" as="geometry" />
        </mxCell>
        <mxCell id="9CD8Q6830F6TMeSSEY_z-54" value="" style="rounded=1;whiteSpace=wrap;html=1;fillColor=#fff2cc;strokeColor=#d6b656;shadow=1;glass=0;arcSize=5;" vertex="1" parent="1">
          <mxGeometry x="410" y="90" width="410" height="660" as="geometry" />
        </mxCell>
        <mxCell id="9CD8Q6830F6TMeSSEY_z-43" style="edgeStyle=orthogonalEdgeStyle;rounded=0;orthogonalLoop=1;jettySize=auto;html=1;" edge="1" parent="1" source="9CD8Q6830F6TMeSSEY_z-1" target="9CD8Q6830F6TMeSSEY_z-3">
          <mxGeometry relative="1" as="geometry" />
        </mxCell>
        <mxCell id="9CD8Q6830F6TMeSSEY_z-44" style="edgeStyle=orthogonalEdgeStyle;rounded=0;orthogonalLoop=1;jettySize=auto;html=1;exitX=1;exitY=0.5;exitDx=0;exitDy=0;exitPerimeter=0;entryX=0;entryY=0.5;entryDx=0;entryDy=0;" edge="1" parent="1" source="9CD8Q6830F6TMeSSEY_z-1" target="9CD8Q6830F6TMeSSEY_z-16">
          <mxGeometry relative="1" as="geometry" />
        </mxCell>
        <mxCell id="9CD8Q6830F6TMeSSEY_z-45" style="edgeStyle=orthogonalEdgeStyle;rounded=0;orthogonalLoop=1;jettySize=auto;html=1;exitX=1;exitY=0.5;exitDx=0;exitDy=0;exitPerimeter=0;entryX=0;entryY=0.5;entryDx=0;entryDy=0;" edge="1" parent="1" source="9CD8Q6830F6TMeSSEY_z-1" target="9CD8Q6830F6TMeSSEY_z-23">
          <mxGeometry relative="1" as="geometry" />
        </mxCell>
        <mxCell id="9CD8Q6830F6TMeSSEY_z-1" value="" style="strokeWidth=2;html=1;shape=mxgraph.flowchart.database;whiteSpace=wrap;" vertex="1" parent="1">
          <mxGeometry x="437" y="340" width="120" height="190" as="geometry" />
        </mxCell>
        <mxCell id="9CD8Q6830F6TMeSSEY_z-2" value="Table" style="shape=table;startSize=30;container=1;collapsible=0;childLayout=tableLayout;fixedRows=1;rowLines=0;fontStyle=0;strokeColor=default;fontSize=16;" vertex="1" parent="1">
          <mxGeometry x="697" y="150" width="100" height="120" as="geometry" />
        </mxCell>
        <mxCell id="9CD8Q6830F6TMeSSEY_z-3" value="" style="shape=tableRow;horizontal=0;startSize=0;swimlaneHead=0;swimlaneBody=0;top=0;left=0;bottom=0;right=0;collapsible=0;dropTarget=0;fillColor=none;points=[[0,0.5],[1,0.5]];portConstraint=eastwest;strokeColor=inherit;fontSize=16;" vertex="1" parent="9CD8Q6830F6TMeSSEY_z-2">
          <mxGeometry y="30" width="100" height="30" as="geometry" />
        </mxCell>
        <mxCell id="9CD8Q6830F6TMeSSEY_z-4" value="1" style="shape=partialRectangle;html=1;whiteSpace=wrap;connectable=0;fillColor=none;top=0;left=0;bottom=0;right=0;overflow=hidden;pointerEvents=1;strokeColor=inherit;fontSize=16;" vertex="1" parent="9CD8Q6830F6TMeSSEY_z-3">
          <mxGeometry width="23" height="30" as="geometry">
            <mxRectangle width="23" height="30" as="alternateBounds" />
          </mxGeometry>
        </mxCell>
        <mxCell id="9CD8Q6830F6TMeSSEY_z-5" value="Value 1" style="shape=partialRectangle;html=1;whiteSpace=wrap;connectable=0;fillColor=none;top=0;left=0;bottom=0;right=0;align=left;spacingLeft=6;overflow=hidden;strokeColor=inherit;fontSize=16;" vertex="1" parent="9CD8Q6830F6TMeSSEY_z-3">
          <mxGeometry x="23" width="77" height="30" as="geometry">
            <mxRectangle width="77" height="30" as="alternateBounds" />
          </mxGeometry>
        </mxCell>
        <mxCell id="9CD8Q6830F6TMeSSEY_z-6" value="" style="shape=tableRow;horizontal=0;startSize=0;swimlaneHead=0;swimlaneBody=0;top=0;left=0;bottom=0;right=0;collapsible=0;dropTarget=0;fillColor=none;points=[[0,0.5],[1,0.5]];portConstraint=eastwest;strokeColor=inherit;fontSize=16;" vertex="1" parent="9CD8Q6830F6TMeSSEY_z-2">
          <mxGeometry y="60" width="100" height="30" as="geometry" />
        </mxCell>
        <mxCell id="9CD8Q6830F6TMeSSEY_z-7" value="2" style="shape=partialRectangle;html=1;whiteSpace=wrap;connectable=0;fillColor=none;top=0;left=0;bottom=0;right=0;overflow=hidden;strokeColor=inherit;fontSize=16;" vertex="1" parent="9CD8Q6830F6TMeSSEY_z-6">
          <mxGeometry width="23" height="30" as="geometry">
            <mxRectangle width="23" height="30" as="alternateBounds" />
          </mxGeometry>
        </mxCell>
        <mxCell id="9CD8Q6830F6TMeSSEY_z-8" value="Value 2" style="shape=partialRectangle;html=1;whiteSpace=wrap;connectable=0;fillColor=none;top=0;left=0;bottom=0;right=0;align=left;spacingLeft=6;overflow=hidden;strokeColor=inherit;fontSize=16;" vertex="1" parent="9CD8Q6830F6TMeSSEY_z-6">
          <mxGeometry x="23" width="77" height="30" as="geometry">
            <mxRectangle width="77" height="30" as="alternateBounds" />
          </mxGeometry>
        </mxCell>
        <mxCell id="9CD8Q6830F6TMeSSEY_z-9" value="" style="shape=tableRow;horizontal=0;startSize=0;swimlaneHead=0;swimlaneBody=0;top=0;left=0;bottom=0;right=0;collapsible=0;dropTarget=0;fillColor=none;points=[[0,0.5],[1,0.5]];portConstraint=eastwest;strokeColor=inherit;fontSize=16;" vertex="1" parent="9CD8Q6830F6TMeSSEY_z-2">
          <mxGeometry y="90" width="100" height="30" as="geometry" />
        </mxCell>
        <mxCell id="9CD8Q6830F6TMeSSEY_z-10" value="3" style="shape=partialRectangle;html=1;whiteSpace=wrap;connectable=0;fillColor=none;top=0;left=0;bottom=0;right=0;overflow=hidden;strokeColor=inherit;fontSize=16;" vertex="1" parent="9CD8Q6830F6TMeSSEY_z-9">
          <mxGeometry width="23" height="30" as="geometry">
            <mxRectangle width="23" height="30" as="alternateBounds" />
          </mxGeometry>
        </mxCell>
        <mxCell id="9CD8Q6830F6TMeSSEY_z-11" value="Value 3" style="shape=partialRectangle;html=1;whiteSpace=wrap;connectable=0;fillColor=none;top=0;left=0;bottom=0;right=0;align=left;spacingLeft=6;overflow=hidden;strokeColor=inherit;fontSize=16;" vertex="1" parent="9CD8Q6830F6TMeSSEY_z-9">
          <mxGeometry x="23" width="77" height="30" as="geometry">
            <mxRectangle width="77" height="30" as="alternateBounds" />
          </mxGeometry>
        </mxCell>
        <mxCell id="9CD8Q6830F6TMeSSEY_z-12" value="Table" style="shape=table;startSize=30;container=1;collapsible=0;childLayout=tableLayout;fixedRows=1;rowLines=0;fontStyle=0;strokeColor=default;fontSize=16;" vertex="1" parent="1">
          <mxGeometry x="697" y="290" width="100" height="120" as="geometry" />
        </mxCell>
        <mxCell id="9CD8Q6830F6TMeSSEY_z-13" value="" style="shape=tableRow;horizontal=0;startSize=0;swimlaneHead=0;swimlaneBody=0;top=0;left=0;bottom=0;right=0;collapsible=0;dropTarget=0;fillColor=none;points=[[0,0.5],[1,0.5]];portConstraint=eastwest;strokeColor=inherit;fontSize=16;" vertex="1" parent="9CD8Q6830F6TMeSSEY_z-12">
          <mxGeometry y="30" width="100" height="30" as="geometry" />
        </mxCell>
        <mxCell id="9CD8Q6830F6TMeSSEY_z-14" value="1" style="shape=partialRectangle;html=1;whiteSpace=wrap;connectable=0;fillColor=none;top=0;left=0;bottom=0;right=0;overflow=hidden;pointerEvents=1;strokeColor=inherit;fontSize=16;" vertex="1" parent="9CD8Q6830F6TMeSSEY_z-13">
          <mxGeometry width="23" height="30" as="geometry">
            <mxRectangle width="23" height="30" as="alternateBounds" />
          </mxGeometry>
        </mxCell>
        <mxCell id="9CD8Q6830F6TMeSSEY_z-15" value="Value 1" style="shape=partialRectangle;html=1;whiteSpace=wrap;connectable=0;fillColor=none;top=0;left=0;bottom=0;right=0;align=left;spacingLeft=6;overflow=hidden;strokeColor=inherit;fontSize=16;" vertex="1" parent="9CD8Q6830F6TMeSSEY_z-13">
          <mxGeometry x="23" width="77" height="30" as="geometry">
            <mxRectangle width="77" height="30" as="alternateBounds" />
          </mxGeometry>
        </mxCell>
        <mxCell id="9CD8Q6830F6TMeSSEY_z-16" value="" style="shape=tableRow;horizontal=0;startSize=0;swimlaneHead=0;swimlaneBody=0;top=0;left=0;bottom=0;right=0;collapsible=0;dropTarget=0;fillColor=none;points=[[0,0.5],[1,0.5]];portConstraint=eastwest;strokeColor=inherit;fontSize=16;" vertex="1" parent="9CD8Q6830F6TMeSSEY_z-12">
          <mxGeometry y="60" width="100" height="30" as="geometry" />
        </mxCell>
        <mxCell id="9CD8Q6830F6TMeSSEY_z-17" value="2" style="shape=partialRectangle;html=1;whiteSpace=wrap;connectable=0;fillColor=none;top=0;left=0;bottom=0;right=0;overflow=hidden;strokeColor=inherit;fontSize=16;" vertex="1" parent="9CD8Q6830F6TMeSSEY_z-16">
          <mxGeometry width="23" height="30" as="geometry">
            <mxRectangle width="23" height="30" as="alternateBounds" />
          </mxGeometry>
        </mxCell>
        <mxCell id="9CD8Q6830F6TMeSSEY_z-18" value="Value 2" style="shape=partialRectangle;html=1;whiteSpace=wrap;connectable=0;fillColor=none;top=0;left=0;bottom=0;right=0;align=left;spacingLeft=6;overflow=hidden;strokeColor=inherit;fontSize=16;" vertex="1" parent="9CD8Q6830F6TMeSSEY_z-16">
          <mxGeometry x="23" width="77" height="30" as="geometry">
            <mxRectangle width="77" height="30" as="alternateBounds" />
          </mxGeometry>
        </mxCell>
        <mxCell id="9CD8Q6830F6TMeSSEY_z-19" value="" style="shape=tableRow;horizontal=0;startSize=0;swimlaneHead=0;swimlaneBody=0;top=0;left=0;bottom=0;right=0;collapsible=0;dropTarget=0;fillColor=none;points=[[0,0.5],[1,0.5]];portConstraint=eastwest;strokeColor=inherit;fontSize=16;" vertex="1" parent="9CD8Q6830F6TMeSSEY_z-12">
          <mxGeometry y="90" width="100" height="30" as="geometry" />
        </mxCell>
        <mxCell id="9CD8Q6830F6TMeSSEY_z-20" value="3" style="shape=partialRectangle;html=1;whiteSpace=wrap;connectable=0;fillColor=none;top=0;left=0;bottom=0;right=0;overflow=hidden;strokeColor=inherit;fontSize=16;" vertex="1" parent="9CD8Q6830F6TMeSSEY_z-19">
          <mxGeometry width="23" height="30" as="geometry">
            <mxRectangle width="23" height="30" as="alternateBounds" />
          </mxGeometry>
        </mxCell>
        <mxCell id="9CD8Q6830F6TMeSSEY_z-21" value="Value 3" style="shape=partialRectangle;html=1;whiteSpace=wrap;connectable=0;fillColor=none;top=0;left=0;bottom=0;right=0;align=left;spacingLeft=6;overflow=hidden;strokeColor=inherit;fontSize=16;" vertex="1" parent="9CD8Q6830F6TMeSSEY_z-19">
          <mxGeometry x="23" width="77" height="30" as="geometry">
            <mxRectangle width="77" height="30" as="alternateBounds" />
          </mxGeometry>
        </mxCell>
        <mxCell id="9CD8Q6830F6TMeSSEY_z-22" value="Table" style="shape=table;startSize=30;container=1;collapsible=0;childLayout=tableLayout;fixedRows=1;rowLines=0;fontStyle=0;strokeColor=default;fontSize=16;" vertex="1" parent="1">
          <mxGeometry x="697" y="440" width="100" height="120" as="geometry" />
        </mxCell>
        <mxCell id="9CD8Q6830F6TMeSSEY_z-23" value="" style="shape=tableRow;horizontal=0;startSize=0;swimlaneHead=0;swimlaneBody=0;top=0;left=0;bottom=0;right=0;collapsible=0;dropTarget=0;fillColor=none;points=[[0,0.5],[1,0.5]];portConstraint=eastwest;strokeColor=inherit;fontSize=16;" vertex="1" parent="9CD8Q6830F6TMeSSEY_z-22">
          <mxGeometry y="30" width="100" height="30" as="geometry" />
        </mxCell>
        <mxCell id="9CD8Q6830F6TMeSSEY_z-24" value="1" style="shape=partialRectangle;html=1;whiteSpace=wrap;connectable=0;fillColor=none;top=0;left=0;bottom=0;right=0;overflow=hidden;pointerEvents=1;strokeColor=inherit;fontSize=16;" vertex="1" parent="9CD8Q6830F6TMeSSEY_z-23">
          <mxGeometry width="23" height="30" as="geometry">
            <mxRectangle width="23" height="30" as="alternateBounds" />
          </mxGeometry>
        </mxCell>
        <mxCell id="9CD8Q6830F6TMeSSEY_z-25" value="Value 1" style="shape=partialRectangle;html=1;whiteSpace=wrap;connectable=0;fillColor=none;top=0;left=0;bottom=0;right=0;align=left;spacingLeft=6;overflow=hidden;strokeColor=inherit;fontSize=16;" vertex="1" parent="9CD8Q6830F6TMeSSEY_z-23">
          <mxGeometry x="23" width="77" height="30" as="geometry">
            <mxRectangle width="77" height="30" as="alternateBounds" />
          </mxGeometry>
        </mxCell>
        <mxCell id="9CD8Q6830F6TMeSSEY_z-26" value="" style="shape=tableRow;horizontal=0;startSize=0;swimlaneHead=0;swimlaneBody=0;top=0;left=0;bottom=0;right=0;collapsible=0;dropTarget=0;fillColor=none;points=[[0,0.5],[1,0.5]];portConstraint=eastwest;strokeColor=inherit;fontSize=16;" vertex="1" parent="9CD8Q6830F6TMeSSEY_z-22">
          <mxGeometry y="60" width="100" height="30" as="geometry" />
        </mxCell>
        <mxCell id="9CD8Q6830F6TMeSSEY_z-27" value="2" style="shape=partialRectangle;html=1;whiteSpace=wrap;connectable=0;fillColor=none;top=0;left=0;bottom=0;right=0;overflow=hidden;strokeColor=inherit;fontSize=16;" vertex="1" parent="9CD8Q6830F6TMeSSEY_z-26">
          <mxGeometry width="23" height="30" as="geometry">
            <mxRectangle width="23" height="30" as="alternateBounds" />
          </mxGeometry>
        </mxCell>
        <mxCell id="9CD8Q6830F6TMeSSEY_z-28" value="Value 2" style="shape=partialRectangle;html=1;whiteSpace=wrap;connectable=0;fillColor=none;top=0;left=0;bottom=0;right=0;align=left;spacingLeft=6;overflow=hidden;strokeColor=inherit;fontSize=16;" vertex="1" parent="9CD8Q6830F6TMeSSEY_z-26">
          <mxGeometry x="23" width="77" height="30" as="geometry">
            <mxRectangle width="77" height="30" as="alternateBounds" />
          </mxGeometry>
        </mxCell>
        <mxCell id="9CD8Q6830F6TMeSSEY_z-29" value="" style="shape=tableRow;horizontal=0;startSize=0;swimlaneHead=0;swimlaneBody=0;top=0;left=0;bottom=0;right=0;collapsible=0;dropTarget=0;fillColor=none;points=[[0,0.5],[1,0.5]];portConstraint=eastwest;strokeColor=inherit;fontSize=16;" vertex="1" parent="9CD8Q6830F6TMeSSEY_z-22">
          <mxGeometry y="90" width="100" height="30" as="geometry" />
        </mxCell>
        <mxCell id="9CD8Q6830F6TMeSSEY_z-30" value="3" style="shape=partialRectangle;html=1;whiteSpace=wrap;connectable=0;fillColor=none;top=0;left=0;bottom=0;right=0;overflow=hidden;strokeColor=inherit;fontSize=16;" vertex="1" parent="9CD8Q6830F6TMeSSEY_z-29">
          <mxGeometry width="23" height="30" as="geometry">
            <mxRectangle width="23" height="30" as="alternateBounds" />
          </mxGeometry>
        </mxCell>
        <mxCell id="9CD8Q6830F6TMeSSEY_z-31" value="Value 3" style="shape=partialRectangle;html=1;whiteSpace=wrap;connectable=0;fillColor=none;top=0;left=0;bottom=0;right=0;align=left;spacingLeft=6;overflow=hidden;strokeColor=inherit;fontSize=16;" vertex="1" parent="9CD8Q6830F6TMeSSEY_z-29">
          <mxGeometry x="23" width="77" height="30" as="geometry">
            <mxRectangle width="77" height="30" as="alternateBounds" />
          </mxGeometry>
        </mxCell>
        <mxCell id="9CD8Q6830F6TMeSSEY_z-32" value="Table" style="shape=table;startSize=30;container=1;collapsible=0;childLayout=tableLayout;fixedRows=1;rowLines=0;fontStyle=0;strokeColor=default;fontSize=16;" vertex="1" parent="1">
          <mxGeometry x="697" y="595" width="100" height="120" as="geometry" />
        </mxCell>
        <mxCell id="9CD8Q6830F6TMeSSEY_z-33" value="" style="shape=tableRow;horizontal=0;startSize=0;swimlaneHead=0;swimlaneBody=0;top=0;left=0;bottom=0;right=0;collapsible=0;dropTarget=0;fillColor=none;points=[[0,0.5],[1,0.5]];portConstraint=eastwest;strokeColor=inherit;fontSize=16;" vertex="1" parent="9CD8Q6830F6TMeSSEY_z-32">
          <mxGeometry y="30" width="100" height="30" as="geometry" />
        </mxCell>
        <mxCell id="9CD8Q6830F6TMeSSEY_z-34" value="1" style="shape=partialRectangle;html=1;whiteSpace=wrap;connectable=0;fillColor=none;top=0;left=0;bottom=0;right=0;overflow=hidden;pointerEvents=1;strokeColor=inherit;fontSize=16;" vertex="1" parent="9CD8Q6830F6TMeSSEY_z-33">
          <mxGeometry width="23" height="30" as="geometry">
            <mxRectangle width="23" height="30" as="alternateBounds" />
          </mxGeometry>
        </mxCell>
        <mxCell id="9CD8Q6830F6TMeSSEY_z-35" value="Value 1" style="shape=partialRectangle;html=1;whiteSpace=wrap;connectable=0;fillColor=none;top=0;left=0;bottom=0;right=0;align=left;spacingLeft=6;overflow=hidden;strokeColor=inherit;fontSize=16;" vertex="1" parent="9CD8Q6830F6TMeSSEY_z-33">
          <mxGeometry x="23" width="77" height="30" as="geometry">
            <mxRectangle width="77" height="30" as="alternateBounds" />
          </mxGeometry>
        </mxCell>
        <mxCell id="9CD8Q6830F6TMeSSEY_z-36" value="" style="shape=tableRow;horizontal=0;startSize=0;swimlaneHead=0;swimlaneBody=0;top=0;left=0;bottom=0;right=0;collapsible=0;dropTarget=0;fillColor=none;points=[[0,0.5],[1,0.5]];portConstraint=eastwest;strokeColor=inherit;fontSize=16;" vertex="1" parent="9CD8Q6830F6TMeSSEY_z-32">
          <mxGeometry y="60" width="100" height="30" as="geometry" />
        </mxCell>
        <mxCell id="9CD8Q6830F6TMeSSEY_z-37" value="2" style="shape=partialRectangle;html=1;whiteSpace=wrap;connectable=0;fillColor=none;top=0;left=0;bottom=0;right=0;overflow=hidden;strokeColor=inherit;fontSize=16;" vertex="1" parent="9CD8Q6830F6TMeSSEY_z-36">
          <mxGeometry width="23" height="30" as="geometry">
            <mxRectangle width="23" height="30" as="alternateBounds" />
          </mxGeometry>
        </mxCell>
        <mxCell id="9CD8Q6830F6TMeSSEY_z-38" value="Value 2" style="shape=partialRectangle;html=1;whiteSpace=wrap;connectable=0;fillColor=none;top=0;left=0;bottom=0;right=0;align=left;spacingLeft=6;overflow=hidden;strokeColor=inherit;fontSize=16;" vertex="1" parent="9CD8Q6830F6TMeSSEY_z-36">
          <mxGeometry x="23" width="77" height="30" as="geometry">
            <mxRectangle width="77" height="30" as="alternateBounds" />
          </mxGeometry>
        </mxCell>
        <mxCell id="9CD8Q6830F6TMeSSEY_z-39" value="" style="shape=tableRow;horizontal=0;startSize=0;swimlaneHead=0;swimlaneBody=0;top=0;left=0;bottom=0;right=0;collapsible=0;dropTarget=0;fillColor=none;points=[[0,0.5],[1,0.5]];portConstraint=eastwest;strokeColor=inherit;fontSize=16;" vertex="1" parent="9CD8Q6830F6TMeSSEY_z-32">
          <mxGeometry y="90" width="100" height="30" as="geometry" />
        </mxCell>
        <mxCell id="9CD8Q6830F6TMeSSEY_z-40" value="3" style="shape=partialRectangle;html=1;whiteSpace=wrap;connectable=0;fillColor=none;top=0;left=0;bottom=0;right=0;overflow=hidden;strokeColor=inherit;fontSize=16;" vertex="1" parent="9CD8Q6830F6TMeSSEY_z-39">
          <mxGeometry width="23" height="30" as="geometry">
            <mxRectangle width="23" height="30" as="alternateBounds" />
          </mxGeometry>
        </mxCell>
        <mxCell id="9CD8Q6830F6TMeSSEY_z-41" value="Value 3" style="shape=partialRectangle;html=1;whiteSpace=wrap;connectable=0;fillColor=none;top=0;left=0;bottom=0;right=0;align=left;spacingLeft=6;overflow=hidden;strokeColor=inherit;fontSize=16;" vertex="1" parent="9CD8Q6830F6TMeSSEY_z-39">
          <mxGeometry x="23" width="77" height="30" as="geometry">
            <mxRectangle width="77" height="30" as="alternateBounds" />
          </mxGeometry>
        </mxCell>
        <mxCell id="9CD8Q6830F6TMeSSEY_z-42" value="USUÃRIO" style="verticalLabelPosition=bottom;html=1;verticalAlign=top;align=center;strokeColor=none;fillColor=#00BEF2;shape=mxgraph.azure.user;" vertex="1" parent="1">
          <mxGeometry x="40" y="142.25" width="47.5" height="50" as="geometry" />
        </mxCell>
        <mxCell id="9CD8Q6830F6TMeSSEY_z-46" style="edgeStyle=orthogonalEdgeStyle;rounded=0;orthogonalLoop=1;jettySize=auto;html=1;entryX=-0.04;entryY=0.9;entryDx=0;entryDy=0;entryPerimeter=0;" edge="1" parent="1" source="9CD8Q6830F6TMeSSEY_z-1" target="9CD8Q6830F6TMeSSEY_z-33">
          <mxGeometry relative="1" as="geometry" />
        </mxCell>
        <mxCell id="9CD8Q6830F6TMeSSEY_z-48" value="APLICAÃÃO" style="outlineConnect=0;dashed=0;verticalLabelPosition=bottom;verticalAlign=top;align=center;html=1;shape=mxgraph.aws3.workspaces;fillColor=#D16A28;gradientColor=#F58435;gradientDirection=north;" vertex="1" parent="1">
          <mxGeometry x="190" y="120" width="82.5" height="94.5" as="geometry" />
        </mxCell>
        <mxCell id="9CD8Q6830F6TMeSSEY_z-50" value="" style="endArrow=none;dashed=1;html=1;rounded=0;exitX=1;exitY=0.5;exitDx=0;exitDy=0;exitPerimeter=0;" edge="1" parent="1" source="9CD8Q6830F6TMeSSEY_z-48">
          <mxGeometry width="50" height="50" relative="1" as="geometry">
            <mxPoint x="390" y="430" as="sourcePoint" />
            <mxPoint x="440" y="380" as="targetPoint" />
          </mxGeometry>
        </mxCell>
        <mxCell id="9CD8Q6830F6TMeSSEY_z-52" value="FLUXO ETL" style="verticalLabelPosition=bottom;aspect=fixed;html=1;shape=mxgraph.salesforce.workflow;" vertex="1" parent="1">
          <mxGeometry x="201.25" y="640" width="60" height="60" as="geometry" />
        </mxCell>
        <mxCell id="9CD8Q6830F6TMeSSEY_z-53" value="" style="endArrow=none;dashed=1;html=1;rounded=0;exitX=1.029;exitY=0.433;exitDx=0;exitDy=0;exitPerimeter=0;entryX=0;entryY=0.85;entryDx=0;entryDy=0;entryPerimeter=0;" edge="1" parent="1" source="9CD8Q6830F6TMeSSEY_z-52" target="9CD8Q6830F6TMeSSEY_z-1">
          <mxGeometry width="50" height="50" relative="1" as="geometry">
            <mxPoint x="283" y="177" as="sourcePoint" />
            <mxPoint x="450" y="390" as="targetPoint" />
            <Array as="points" />
          </mxGeometry>
        </mxCell>
        <mxCell id="9CD8Q6830F6TMeSSEY_z-56" value="" style="whiteSpace=wrap;html=1;shape=mxgraph.basic.document" vertex="1" parent="1">
          <mxGeometry x="30" y="620" width="30" height="40" as="geometry" />
        </mxCell>
        <mxCell id="9CD8Q6830F6TMeSSEY_z-57" value="" style="whiteSpace=wrap;html=1;shape=mxgraph.basic.document" vertex="1" parent="1">
          <mxGeometry x="40" y="630" width="30" height="40" as="geometry" />
        </mxCell>
        <mxCell id="9CD8Q6830F6TMeSSEY_z-58" value="" style="whiteSpace=wrap;html=1;shape=mxgraph.basic.document" vertex="1" parent="1">
          <mxGeometry x="50" y="640" width="30" height="40" as="geometry" />
        </mxCell>
        <mxCell id="9CD8Q6830F6TMeSSEY_z-59" value="" style="whiteSpace=wrap;html=1;shape=mxgraph.basic.document" vertex="1" parent="1">
          <mxGeometry x="60" y="650" width="30" height="40" as="geometry" />
        </mxCell>
        <mxCell id="9CD8Q6830F6TMeSSEY_z-60" value="" style="whiteSpace=wrap;html=1;shape=mxgraph.basic.document" vertex="1" parent="1">
          <mxGeometry x="70" y="660" width="30" height="40" as="geometry" />
        </mxCell>
        <mxCell id="9CD8Q6830F6TMeSSEY_z-61" value="" style="endArrow=classic;startArrow=classic;html=1;rounded=0;entryX=0.029;entryY=0.667;entryDx=0;entryDy=0;entryPerimeter=0;exitX=1;exitY=0.5;exitDx=0;exitDy=0;exitPerimeter=0;" edge="1" parent="1" source="9CD8Q6830F6TMeSSEY_z-60" target="9CD8Q6830F6TMeSSEY_z-52">
          <mxGeometry width="50" height="50" relative="1" as="geometry">
            <mxPoint x="100" y="685" as="sourcePoint" />
            <mxPoint x="150" y="635" as="targetPoint" />
          </mxGeometry>
        </mxCell>
        <mxCell id="9CD8Q6830F6TMeSSEY_z-63" value="" style="endArrow=classic;startArrow=classic;html=1;rounded=0;entryX=0.029;entryY=0.667;entryDx=0;entryDy=0;entryPerimeter=0;exitX=1;exitY=0.5;exitDx=0;exitDy=0;exitPerimeter=0;" edge="1" parent="1">
          <mxGeometry width="50" height="50" relative="1" as="geometry">
            <mxPoint x="88" y="166.75" as="sourcePoint" />
            <mxPoint x="191" y="166.75" as="targetPoint" />
          </mxGeometry>
        </mxCell>
        <mxCell id="9CD8Q6830F6TMeSSEY_z-64" value="&lt;b&gt;&lt;font style=&quot;background-color: rgb(234, 255, 168); font-size: 20px;&quot;&gt;CONCILIAÃÃO - CESSÃO&lt;/font&gt;&lt;/b&gt;" style="text;strokeColor=none;align=center;fillColor=none;html=1;verticalAlign=middle;whiteSpace=wrap;rounded=0;" vertex="1" parent="1">
          <mxGeometry x="240" y="10" width="230" height="30" as="geometry" />
        </mxCell>
        <mxCell id="9CD8Q6830F6TMeSSEY_z-65" value="BANCO DE DADOS" style="text;strokeColor=none;align=center;fillColor=none;html=1;verticalAlign=middle;whiteSpace=wrap;rounded=0;" vertex="1" parent="1">
          <mxGeometry x="530" y="90" width="150" height="30" as="geometry" />
        </mxCell>
        <mxCell id="9CD8Q6830F6TMeSSEY_z-66" value="ARQUIVOS" style="text;strokeColor=none;align=center;fillColor=none;html=1;verticalAlign=middle;whiteSpace=wrap;rounded=0;" vertex="1" parent="1">
          <mxGeometry x="45" y="710" width="60" height="30" as="geometry" />
        </mxCell>
        <mxCell id="9CD8Q6830F6TMeSSEY_z-71" value="" style="shape=image;html=1;verticalAlign=top;verticalLabelPosition=bottom;labelBackgroundColor=#ffffff;imageAspect=0;aspect=fixed;image=https://cdn3.iconfinder.com/data/icons/miscellaneous-80/60/check-128.png" vertex="1" parent="1">
          <mxGeometry x="22" y="580" width="30" height="30" as="geometry" />
        </mxCell>
        <mxCell id="9CD8Q6830F6TMeSSEY_z-72" value="" style="verticalLabelPosition=bottom;verticalAlign=top;html=1;shape=mxgraph.basic.x;opacity=50;fillColor=#808080;" vertex="1" parent="1">
          <mxGeometry x="50" y="128" width="230" height="102" as="geometry" />
        </mxCell>
        <mxCell id="9CD8Q6830F6TMeSSEY_z-75" value="&lt;div style=&quot;line-height: 0%;&quot;&gt;- Politica de expurgo: 5 anos&lt;/div&gt;&lt;div style=&quot;line-height: 0%;&quot;&gt;&lt;br&gt;&lt;br&gt;&lt;/div&gt;" style="shape=note;whiteSpace=wrap;html=1;backgroundOutline=1;fontColor=#000000;darkOpacity=0.05;fillColor=#FFF9B2;strokeColor=none;fillStyle=solid;direction=west;gradientDirection=north;gradientColor=#FFF2A1;shadow=1;size=20;pointerEvents=1;align=left;" vertex="1" parent="1">
          <mxGeometry x="37.5" y="280" width="270" height="160" as="geometry" />
        </mxCell>
      </root>
    </mxGraphModel>
  </diagram>
</mxfile>
